<svg xmlns="http://www.w3.org/2000/svg" viewBox="0 0 813.64 515.05"><defs><style>.cls-1{fill:none;stroke-width:24px;}.cls-1,.cls-2{stroke:#000;stroke-miterlimit:10;}</style></defs><g id="Capa_2" data-name="Capa 2"><g id="Capa_1-2" data-name="Capa 1"><rect class="cls-1" x="12" y="12" width="789.64" height="491.05" rx="23.52"/><path class="cls-2" d="M342.68,265.34v-16c.09-.61.2-1.23.26-1.84.9-8.18,1.39-16.42,2.75-24.51a194.31,194.31,0,0,1,24.73-67.49,200.21,200.21,0,0,1,81.65-77.13,197.25,197.25,0,0,1,77.07-21.65c2.34-.17,4.68-.37,7-.56H551.9a13.16,13.16,0,0,0,1.53.24,190.51,190.51,0,0,1,32.7,4.19c37,8,69.4,24.94,96.7,51.14q52,49.88,61.06,121.56A197.08,197.08,0,0,1,742.42,292c-5.28,30.33-16.68,58.2-35,83q-54.74,74.16-146.68,83.15A192.18,192.18,0,0,1,499.84,454c-29.18-6.57-55.79-18.83-79.2-37.44q-69.75-55.45-77.4-144.46C343.05,269.81,342.87,267.58,342.68,265.34Zm19.89,2a181,181,0,0,0,34.89,97.55c8.51-4.85,16.61-9.8,25-14.15s17.19-8.11,25.86-12.14a249.6,249.6,0,0,1-13.69-71.26Zm362.91,0H656.13A248.66,248.66,0,0,1,642.05,340a268,268,0,0,1,48.33,25.28A181.37,181.37,0,0,0,725.48,267.38ZM446.6,181a267.68,267.68,0,0,1-51.72-27.39,181.34,181.34,0,0,0-32.3,93.95h72.06A249.45,249.45,0,0,1,446.6,181Zm246.57-27.39a267,267,0,0,1-49.55,26.52,247.88,247.88,0,0,1,12.49,67.41h69.37A181.37,181.37,0,0,0,693.17,153.61ZM623.53,333.37a227.47,227.47,0,0,0,12.92-66H553.92v54A266.87,266.87,0,0,1,623.53,333.37Zm-156.4-.81a268.71,268.71,0,0,1,33.07-7.73,274.84,274.84,0,0,1,33.89-3.48v-54H454.45C453.66,280.43,461.06,318.53,467.13,332.56ZM625,186.88a267,267,0,0,1-71,12.48v48.2h82.31C637.31,237.11,629.69,196.14,625,186.88ZM454.31,247.56h79.8V199.35a267.39,267.39,0,0,1-69-11.81A228.5,228.5,0,0,0,454.31,247.56Zm164-79.16c-15-35.35-37-65.65-63.86-92.51l-.46.26V179.67A246.12,246.12,0,0,0,618.26,168.4ZM534.15,76.89C507.7,104,486.41,134.14,471.9,169.05a245.24,245.24,0,0,0,62.25,10.62Zm19.79,264.17v98.17a10.48,10.48,0,0,0,1.95-1.2c2.76-2.81,5.5-5.62,8.17-8.51,20.45-22.12,37.58-46.51,50.37-73.86.59-1.27,1.15-2.55,1.8-4A243.65,243.65,0,0,0,553.94,341.06Zm-79.67,9.88c14.53,32.71,34.92,61,59.85,86.57V341.06A244,244,0,0,0,474.27,350.94ZM407,138.07a245.16,245.16,0,0,0,46.36,24.46A284.74,284.74,0,0,1,475.5,119.4,357.41,357.41,0,0,1,504,80.35C465.48,89.14,433.29,108.49,407,138.07ZM636.74,161.7a244.59,244.59,0,0,0,44.33-23.63C655.23,109,623.68,89.82,586,80.73,606.94,105.16,624.23,131.86,636.74,161.7ZM455.61,357.3a244.45,244.45,0,0,0-45.35,23.19c26.08,27.84,57.44,46,94.87,54.56C484.71,411.33,468,385.78,455.61,357.3Zm179.22.93C622.56,386.05,606.21,411,586.64,434c35.72-8.66,66-26.58,91.16-53.51A245.74,245.74,0,0,0,634.83,358.23Z"/><path d="M230.93,244.24V241.8c47.69-12.23,71.2-45.91,71.2-87.87,0-67.19-49-97.82-131.77-97.82H82.24c-7.74,0-14,5.4-14,12V446.89c0,6.66,6.28,12.05,14,12.05h96c93,0,148.78-39.85,148.78-117.38C327,285.65,290.51,253,230.93,244.24Zm43.33-89.15c0,51.31-32.41,77.77-115.13,77.77H96.26V80.21h66.21C238,80.21,274.26,101.45,274.26,155.09ZM170.86,434.85H96.26V257h74.6c82.32,0,128.24,26.85,128.24,84.83C299.1,406.44,252.69,434.85,170.86,434.85Z"/></g></g></svg>